<svg width="33" height="30" viewBox="0 0 33 30" fill="none" xmlns="http://www.w3.org/2000/svg">
<path d="M8.80761 5.80761C8.02656 5.02656 8.01964 3.74776 8.89759 3.07748C10.7096 1.6941 12.8206 0.736385 15.0736 0.288221C17.9834 -0.290557 20.9994 0.00649219 23.7402 1.14181C26.4811 2.27712 28.8238 4.19971 30.472 6.66644C32.1203 9.13318 33 12.0333 33 15C33 17.9667 32.1203 20.8668 30.472 23.3336C28.8238 25.8003 26.4811 27.7229 23.7403 28.8582C20.9994 29.9935 17.9834 30.2906 15.0736 29.7118C12.8206 29.2636 10.7096 28.3059 8.8976 26.9225C8.01965 26.2522 8.02657 24.9734 8.80761 24.1924L9.6915 23.3085C10.4725 22.5275 11.7308 22.5485 12.6546 23.1541C13.6962 23.8369 14.8643 24.3173 16.0979 24.5627C17.9892 24.9389 19.9496 24.7458 21.7312 24.0078C23.5127 23.2699 25.0355 22.0202 26.1068 20.4168C27.1782 18.8134 27.75 16.9284 27.75 15C27.75 13.0716 27.1782 11.1866 26.1068 9.58319C25.0355 7.97981 23.5127 6.73013 21.7312 5.99217C19.9496 5.25422 17.9892 5.06114 16.0979 5.43734C14.8643 5.68272 13.6962 6.16311 12.6546 6.84591C11.7308 7.45148 10.4725 7.47254 9.69149 6.6915L8.80761 5.80761Z" fill="black"/>
<path d="M18 15H3" stroke="black" stroke-width="5" stroke-linecap="round" stroke-linejoin="round"/>
</svg>
