<svg width="37" height="13" viewBox="0 0 37 13" fill="none" xmlns="http://www.w3.org/2000/svg">
<rect x="25" y="1" width="12" height="12" rx="2" fill="#228DE5"/>
<path d="M2.47531 4.32H0.235313V3H6.33531V4.32H4.09531V10H2.47531V4.32ZM8.99352 4.54C9.82685 4.54 10.4668 4.74 10.9135 5.14C11.3602 5.53333 11.5835 6.13 11.5835 6.93V10H10.1235V9.33C9.83018 9.83 9.28352 10.08 8.48352 10.08C8.07018 10.08 7.71018 10.01 7.40352 9.87C7.10352 9.73 6.87352 9.53667 6.71352 9.29C6.55352 9.04333 6.47352 8.76333 6.47352 8.45C6.47352 7.95 6.66018 7.55667 7.03352 7.27C7.41352 6.98333 7.99685 6.84 8.78352 6.84H10.0235C10.0235 6.5 9.92018 6.24 9.71352 6.06C9.50685 5.87333 9.19685 5.78 8.78352 5.78C8.49685 5.78 8.21352 5.82667 7.93352 5.92C7.66018 6.00667 7.42685 6.12667 7.23352 6.28L6.67352 5.19C6.96685 4.98333 7.31685 4.82333 7.72352 4.71C8.13685 4.59667 8.56018 4.54 8.99352 4.54ZM8.87352 9.03C9.14018 9.03 9.37685 8.97 9.58352 8.85C9.79018 8.72333 9.93685 8.54 10.0235 8.3V7.75H8.95352C8.31352 7.75 7.99352 7.96 7.99352 8.38C7.99352 8.58 8.07018 8.74 8.22352 8.86C8.38352 8.97333 8.60018 9.03 8.87352 9.03ZM14.8054 10.08C14.3587 10.08 13.9221 10.0267 13.4954 9.92C13.0687 9.80667 12.7287 9.66667 12.4754 9.5L12.9954 8.38C13.2354 8.53333 13.5254 8.66 13.8654 8.76C14.2054 8.85333 14.5387 8.9 14.8654 8.9C15.5254 8.9 15.8554 8.73667 15.8554 8.41C15.8554 8.25667 15.7654 8.14667 15.5854 8.08C15.4054 8.01333 15.1287 7.95667 14.7554 7.91C14.3154 7.84333 13.9521 7.76667 13.6654 7.68C13.3787 7.59333 13.1287 7.44 12.9154 7.22C12.7087 7 12.6054 6.68667 12.6054 6.28C12.6054 5.94 12.7021 5.64 12.8954 5.38C13.0954 5.11333 13.3821 4.90667 13.7554 4.76C14.1354 4.61333 14.5821 4.54 15.0954 4.54C15.4754 4.54 15.8521 4.58333 16.2254 4.67C16.6054 4.75 16.9187 4.86333 17.1654 5.01L16.6454 6.12C16.1721 5.85333 15.6554 5.72 15.0954 5.72C14.7621 5.72 14.5121 5.76667 14.3454 5.86C14.1787 5.95333 14.0954 6.07333 14.0954 6.22C14.0954 6.38667 14.1854 6.50333 14.3654 6.57C14.5454 6.63667 14.8321 6.7 15.2254 6.76C15.6654 6.83333 16.0254 6.91333 16.3054 7C16.5854 7.08 16.8287 7.23 17.0354 7.45C17.2421 7.67 17.3454 7.97667 17.3454 8.37C17.3454 8.70333 17.2454 9 17.0454 9.26C16.8454 9.52 16.5521 9.72333 16.1654 9.87C15.7854 10.01 15.3321 10.08 14.8054 10.08ZM20.6179 7.89L19.8679 8.63V10H18.3079V2.58H19.8679V6.78L22.1479 4.62H24.0079L21.7679 6.9L24.2079 10H22.3179L20.6179 7.89Z" fill="black"/>
<path d="M28.6572 10H27.3145V2.69043H28.6572V10ZM30.9375 11.9922V10.6494L31.6797 10.6592C31.8099 10.6592 31.9352 10.638 32.0557 10.5957C32.1761 10.5534 32.2868 10.4948 32.3877 10.4199C32.4919 10.3451 32.583 10.2555 32.6611 10.1514C32.7393 10.0505 32.8027 9.93978 32.8516 9.81934C32.7051 9.88118 32.5553 9.94303 32.4023 10.0049C32.2526 10.0667 32.1012 10.0977 31.9482 10.0977C31.626 10.0977 31.3232 10.0407 31.04 9.92676C30.7568 9.81283 30.5078 9.65169 30.293 9.44336C30.0814 9.23177 29.9137 8.97624 29.79 8.67676C29.6696 8.37402 29.6094 8.03548 29.6094 7.66113V4.77051H30.9375V7.66113C30.9375 7.84668 30.9635 8.00944 31.0156 8.14941C31.071 8.28613 31.1442 8.40169 31.2354 8.49609C31.3265 8.58724 31.4323 8.6556 31.5527 8.70117C31.6764 8.74674 31.8083 8.76953 31.9482 8.76953C32.085 8.76953 32.2135 8.73861 32.334 8.67676C32.4577 8.61165 32.5651 8.52702 32.6562 8.42285C32.7474 8.31868 32.819 8.2015 32.8711 8.07129C32.9232 7.93783 32.9492 7.80111 32.9492 7.66113V4.77051H34.292V9.34082C34.2887 9.70866 34.2171 10.0537 34.0771 10.376C33.9372 10.6982 33.7451 10.9798 33.501 11.2207C33.2601 11.4616 32.9785 11.652 32.6562 11.792C32.334 11.932 31.9889 12.002 31.6211 12.002L30.9375 11.9922Z" fill="white"/>
</svg>
